<svg width="12" height="9" viewBox="0 0 12 9" fill="none" xmlns="http://www.w3.org/2000/svg">
<path d="M6.56144 3.83063H5.32207V2.71687H6.56144V3.83063ZM6.56144 0H5.32207V1.13812H6.56144V0ZM8.02769 2.715H6.78832V3.82875H8.02769V2.715ZM5.09707 1.36312H3.85769V2.49H5.09707V1.36312ZM6.56144 1.36312H5.32207V2.49H6.56144V1.36312ZM11.7514 3.23813C11.4814 3.05625 10.8589 2.99063 10.3808 3.08063C10.3189 2.63063 10.0677 2.23875 9.61019 1.88625L9.34769 1.71188L9.17332 1.97438C8.82832 2.49563 8.73457 3.35438 9.10394 3.92063C8.94082 4.00875 8.62019 4.12875 8.19644 4.12125H0.0458173C-0.117308 5.07375 0.154567 6.31125 0.870817 7.16063C1.56644 7.98375 2.60894 8.40188 3.97207 8.40188C6.92332 8.40188 9.10769 7.0425 10.1296 4.57313C10.5308 4.58063 11.3971 4.575 11.8414 3.72563C11.8696 3.67875 11.9652 3.47813 12.0008 3.405L11.7514 3.23813ZM2.16832 2.715H0.930817V3.82875H2.17019V2.715H2.16832ZM3.63269 2.715H2.39332V3.82875H3.63269V2.715ZM5.09707 2.715H3.85769V3.82875H5.09707V2.715ZM3.63269 1.36312H2.39332V2.49H3.63269V1.36312Z" fill="url(#paint0_linear_1571_1370)"/>
<defs>
<linearGradient id="paint0_linear_1571_1370" x1="0" y1="4.20094" x2="13.9129" y2="4.20094" gradientUnits="userSpaceOnUse">
<stop stopColor="#D6409F"/>
<stop offset="1" stopColor="#E54D2E"/>
</linearGradient>
</defs>
</svg>
