<svg width="12" height="8" viewBox="0 0 12 8" fill="none" xmlns="http://www.w3.org/2000/svg">
<path d="M12 7.29401C11.8254 7.36007 11.6326 7.35992 11.458 7.2936C11.2835 7.22728 11.1392 7.09938 11.0525 6.93401L9.32751 4.54851L9.07751 4.21501L7.07601 6.93701C6.9945 7.09544 6.85808 7.21875 6.69226 7.28391C6.52643 7.34906 6.34256 7.35158 6.17501 7.29101L8.75401 3.83101L6.35501 0.705511C6.5275 0.643349 6.71615 0.642525 6.88919 0.703178C7.06222 0.763831 7.20907 0.882256 7.30501 1.03851L9.09301 3.45351L10.891 1.04851C10.9731 0.892905 11.1096 0.772906 11.2744 0.711326C11.4393 0.649746 11.621 0.65088 11.785 0.714512L10.854 1.95001L9.59301 3.59151C9.55799 3.62275 9.52996 3.66104 9.51078 3.70386C9.49159 3.74669 9.48167 3.79308 9.48167 3.84001C9.48167 3.88694 9.49159 3.93334 9.51078 3.97616C9.52996 4.01899 9.55799 4.05727 9.59301 4.08851L11.995 7.29451L12 7.29401ZM0.001006 3.78801L0.211006 2.75051C0.788006 0.699012 3.14001 -0.154488 4.75801 1.11551C5.70551 1.86001 5.94201 2.91401 5.89551 4.10201H0.558006C0.471506 6.22351 2.00251 7.50451 3.96001 6.85001C4.27734 6.73579 4.56138 6.54463 4.78668 6.29367C5.01199 6.04271 5.17153 5.73978 5.25101 5.41201C5.35451 5.07901 5.52501 5.02201 5.83801 5.11801C5.78585 5.5242 5.64226 5.91328 5.41804 6.25597C5.19382 6.59866 4.89481 6.88605 4.54351 7.09651C3.96321 7.41393 3.29742 7.53973 2.64132 7.45595C1.98522 7.37216 1.37241 7.08307 0.890506 6.63001C0.414021 6.09371 0.126044 5.41626 0.070506 4.70101C0.070506 4.58351 0.030506 4.47351 0.003506 4.36801C0.00107201 4.17485 -9.46786e-05 3.98168 5.99814e-06 3.78851L0.001006 3.78801ZM0.564506 3.64501H5.39151C5.36151 2.10701 4.39101 1.01601 3.09651 1.00601C1.65551 0.986012 0.624506 2.05301 0.561006 3.63801L0.564506 3.64501Z" fill="url(#paint0_linear_1571_1364)"/>
<defs>
<linearGradient id="paint0_linear_1571_1364" x1="0" y1="3.99976" x2="13.9119" y2="3.99976" gradientUnits="userSpaceOnUse">
<stop stop-color="#D6409F"/>
<stop offset="1" stop-color="#E54D2E"/>
</linearGradient>
</defs>
</svg>
