<svg width="9" height="12" viewBox="0 0 9 12" fill="none" xmlns="http://www.w3.org/2000/svg">
<path d="M0 2.24513C0 1.00518 1.00518 0 2.24515 0H6.09752C7.33748 0 8.34267 1.00518 8.34267 2.24513C8.34267 3.03028 7.93964 3.72131 7.32916 4.12259C7.93964 4.52388 8.34267 5.21489 8.34267 6.00005C8.34267 7.24001 7.33748 8.2452 6.09752 8.2452H6.04877C5.46748 8.2452 4.93777 8.02427 4.53905 7.66181V9.73048C4.53905 10.987 3.50759 12 2.25724 12C1.02038 12 0 10.9979 0 9.75485C0 8.96974 0.402996 8.27876 1.01342 7.87746C0.402996 7.47616 0 6.78516 0 6.00005C0 5.21489 0.403031 4.52388 1.0135 4.12259C0.403031 3.72131 0 3.03028 0 2.24513ZM3.80362 4.49032H2.24515C1.41134 4.49032 0.735417 5.16626 0.735417 6.00005C0.735417 6.83063 1.40613 7.50455 2.23549 7.50975C2.2387 7.50973 2.24191 7.50973 2.24515 7.50973H3.80362V4.49032ZM4.53905 6.00005C4.53905 6.83384 5.21496 7.50977 6.04877 7.50977H6.09752C6.93134 7.50977 7.60725 6.83384 7.60725 6.00005C7.60725 5.16626 6.93134 4.49032 6.09752 4.49032H6.04877C5.21496 4.49032 4.53905 5.16626 4.53905 6.00005ZM2.24515 8.2452C2.24191 8.2452 2.2387 8.24517 2.23549 8.24517C1.40613 8.25035 0.735417 8.92427 0.735417 9.75485C0.735417 10.5856 1.42037 11.2646 2.25724 11.2646C3.1076 11.2646 3.80362 10.5747 3.80362 9.73048V8.2452H2.24515ZM2.24515 0.735417C1.41134 0.735417 0.735417 1.41134 0.735417 2.24513C0.735417 3.07894 1.41134 3.75485 2.24515 3.75485H3.80362V0.735417H2.24515ZM4.53905 3.75485H6.09752C6.93134 3.75485 7.60725 3.07894 7.60725 2.24513C7.60725 1.41134 6.93134 0.735417 6.09752 0.735417H4.53905V3.75485Z" fill="url(#paint0_linear_1571_1349)"/>
<defs>
<linearGradient id="paint0_linear_1571_1349" x1="0" y1="6" x2="9.67187" y2="6" gradientUnits="userSpaceOnUse">
<stop stop-color="#D6409F"/>
<stop offset="1" stop-color="#E54D2E"/>
</linearGradient>
</defs>
</svg>
