<svg width="512" height="512" viewBox="0 0 512 512" fill="none" xmlns="http://www.w3.org/2000/svg">
<g clip-path="url(#clip0_121_2)">
<path d="M482.412 145.606C482.409 132.999 475.683 121.351 464.763 115.049L331.812 38.32L273.602 4.725C262.684 -1.577 249.232 -1.575 238.315 4.731L180.188 38.303L47.1898 115.119C36.2728 121.424 29.5498 133.074 29.5508 145.681L29.5868 366.394C29.5898 379.001 36.3158 390.649 47.2358 396.951L180.187 473.68L238.397 507.276C249.317 513.578 262.767 513.574 273.684 507.27L331.812 473.697L464.809 396.882C475.726 390.577 482.449 378.927 482.448 366.319L482.412 145.606Z" fill="#F5F5F5"/>
<path d="M47.1898 115.119C36.2728 121.424 29.5498 133.074 29.5508 145.681L29.5868 366.394C29.5898 379.001 36.3158 390.649 47.2358 396.951L180.187 473.68V38.3042L47.1898 115.119Z" fill="#41479B"/>
<path d="M464.81 396.882C475.727 390.577 482.45 378.927 482.449 366.319L482.413 145.606C482.41 132.999 475.684 121.351 464.764 115.049L331.813 38.3198V473.697L464.81 396.882Z" fill="#FF4B55"/>
</g>
<defs>
<clipPath id="clip0_121_2">
<rect width="512" height="512" fill="white"/>
</clipPath>
</defs>
</svg>
