<svg width="12" height="5" viewBox="0 0 12 5" fill="none" xmlns="http://www.w3.org/2000/svg">
<path d="M0 3.49372V2.6126L2.79175 0.958752V1.95875L0.536932 3.03113L0.551251 2.94302V3.1633L0.536932 3.07519L2.79175 3.95875V4.45875L0 3.49372ZM6.29175 4.45875V0.95874L6.79175 0.958752V4.45875H6.29175ZM4.79175 3.82444V3.22938H6.79175V3.82444H4.79175ZM4.79175 4.45875V0.958752H5.29817V4.45875H4.79175ZM4.79175 1.95874V1.45874H6.79175V1.95874H4.79175ZM11.642 3.49372L9.3368 4.45873V3.95875L11.1051 3.07519L11.0908 3.1633V2.94302L11.1051 3.03113L9.3368 1.95875V0.958743L11.642 2.6126V3.49372Z" fill="white"/>
</svg>
