<svg width="11" height="12" viewBox="0 0 11 12" fill="none" xmlns="http://www.w3.org/2000/svg">
<path d="M5.23359 11.8113C5.07656 11.8113 4.91719 11.7691 4.77891 11.6895L3.33281 10.834C3.11719 10.7121 3.22266 10.6699 3.29297 10.6465C3.58125 10.5457 3.63984 10.5246 3.94687 10.3488C3.97969 10.3301 4.02187 10.3371 4.05469 10.3582L5.16562 11.0168C5.20547 11.0402 5.26172 11.0402 5.29922 11.0168L9.62812 8.51836C9.66797 8.49492 9.69375 8.44805 9.69375 8.40117V3.4043C9.69375 3.35508 9.66797 3.31055 9.62578 3.28477L5.29922 0.788672C5.25937 0.765234 5.20547 0.765234 5.16562 0.788672L0.841406 3.28711C0.799219 3.31055 0.773437 3.35742 0.773437 3.40664V8.40117C0.773437 8.44805 0.799219 8.49492 0.841406 8.51602L2.02734 9.20039C2.67187 9.52149 3.06562 9.14414 3.06562 8.76211V3.83086C3.06562 3.76055 3.12187 3.70664 3.19219 3.70664H3.74062C3.80859 3.70664 3.86719 3.76055 3.86719 3.83086V8.76445C3.86719 9.62227 3.39844 10.1145 2.58516 10.1145C2.33437 10.1145 2.1375 10.1145 1.58906 9.84258L0.454687 9.18867C0.173437 9.02695 0 8.72461 0 8.39883V3.4043C0 3.08086 0.173437 2.77617 0.454687 2.61445L4.77891 0.116016C5.05312 -0.0386719 5.41641 -0.0386719 5.68828 0.116016L10.0172 2.6168C10.2984 2.77852 10.4719 3.08086 10.4719 3.40664V8.40117C10.4719 8.72461 10.2984 9.02695 10.0172 9.19102L5.68828 11.6895C5.55 11.7691 5.39297 11.8113 5.23359 11.8113ZM8.72812 6.88711C8.72812 5.95195 8.09531 5.70352 6.76641 5.52773C5.42109 5.34961 5.28516 5.2582 5.28516 4.94414C5.28516 4.68398 5.4 4.33711 6.39609 4.33711C7.28437 4.33711 7.6125 4.5293 7.74844 5.1293C7.76016 5.18555 7.81172 5.22773 7.87031 5.22773H8.43281C8.46797 5.22773 8.50078 5.21367 8.52422 5.18789C8.54766 5.16211 8.55937 5.12695 8.55703 5.0918C8.47031 4.0582 7.78359 3.57773 6.39609 3.57773C5.16094 3.57773 4.425 4.09805 4.425 4.97227C4.425 5.91914 5.15859 6.18164 6.34219 6.29883C7.76016 6.43711 7.87031 6.6457 7.87031 6.92461C7.87031 7.40742 7.48125 7.61367 6.56953 7.61367C5.42344 7.61367 5.17266 7.32539 5.08828 6.75586C5.07891 6.69492 5.02734 6.65039 4.96406 6.65039H4.40391C4.33359 6.65039 4.27969 6.70664 4.27969 6.77461C4.27969 7.50352 4.67578 8.37305 6.57187 8.37305C7.94062 8.3707 8.72812 7.8293 8.72812 6.88711Z" fill="url(#paint0_linear_1571_1367)"/>
<defs>
<linearGradient id="paint0_linear_1571_1367" x1="0" y1="5.90566" x2="12.1403" y2="5.90566" gradientUnits="userSpaceOnUse">
<stop stop-color="#D6409F"/>
<stop offset="1" stop-color="#E54D2E"/>
</linearGradient>
</defs>
</svg>
