<svg width="120" height="120" viewBox="0 0 120 120" fill="none" xmlns="http://www.w3.org/2000/svg">
<path d="M114 111.907C112.844 111.907 111.906 112.844 111.906 114C111.906 115.156 112.844 116.094 114 116.094C115.156 116.094 116.093 115.156 116.093 114C116.093 112.844 115.156 111.907 114 111.907Z" fill="#FFD1D9" fill-opacity="0.2"/>
<path d="M114 99.8469C112.811 99.8469 111.847 100.811 111.847 102C111.847 103.189 112.811 104.153 114 104.153C115.189 104.153 116.153 103.189 116.153 102C116.153 100.811 115.189 99.8469 114 99.8469Z" fill="#FFD1D9" fill-opacity="0.2"/>
<path d="M114 87.8048C112.788 87.8048 111.805 88.7876 111.805 90.0001C111.805 91.2125 112.788 92.1954 114 92.1954C115.212 92.1954 116.195 91.2125 116.195 90.0001C116.195 88.7876 115.212 87.8048 114 87.8048Z" fill="#FFD1D9" fill-opacity="0.2"/>
<path d="M114 75.7812C112.774 75.7812 111.781 76.7746 111.781 78.0001C111.781 79.2255 112.774 80.219 114 80.219C115.225 80.219 116.219 79.2255 116.219 78.0001C116.219 76.7746 115.225 75.7812 114 75.7812Z" fill="#FFD1D9" fill-opacity="0.2"/>
<path d="M114 63.7758C112.772 63.7758 111.776 64.7717 111.776 66.0001C111.776 67.2285 112.772 68.2243 114 68.2243C115.228 68.2243 116.224 67.2285 116.224 66.0001C116.224 64.7717 115.228 63.7758 114 63.7758Z" fill="#FFD1D9" fill-opacity="0.2"/>
<path d="M114 51.7871C112.778 51.7871 111.787 52.7779 111.787 54.0001C111.787 55.2222 112.778 56.213 114 56.213C115.222 56.213 116.213 55.2222 116.213 54.0001C116.213 52.7779 115.222 51.7871 114 51.7871Z" fill="#FFD1D9" fill-opacity="0.2"/>
<path d="M114 39.8121C112.792 39.8121 111.812 40.7917 111.812 42.0001C111.812 43.2085 112.792 44.1881 114 44.1881C115.208 44.1881 116.188 43.2085 116.188 42.0001C116.188 40.7917 115.208 39.8121 114 39.8121Z" fill="#FFD1D9" fill-opacity="0.2"/>
<path d="M114 27.8467C112.811 27.8467 111.847 28.8108 111.847 30.0001C111.847 31.1893 112.811 32.1534 114 32.1534C115.189 32.1534 116.153 31.1893 116.153 30.0001C116.153 28.8108 115.189 27.8467 114 27.8467Z" fill="#FFD1D9" fill-opacity="0.2"/>
<path d="M114 15.8865C112.833 15.8865 111.887 16.8328 111.887 18.0001C111.887 19.1674 112.833 20.1137 114 20.1137C115.167 20.1137 116.114 19.1674 116.114 18.0001C116.114 16.8328 115.167 15.8865 114 15.8865Z" fill="#FFD1D9" fill-opacity="0.2"/>
<path d="M114 3.92683C112.855 3.92683 111.927 4.85505 111.927 6.00007C111.927 7.14509 112.855 8.07331 114 8.07331C115.145 8.07331 116.073 7.14509 116.073 6.00007C116.073 4.85505 115.145 3.92683 114 3.92683Z" fill="#FFD1D9" fill-opacity="0.2"/>
<path d="M102 111.828C100.8 111.828 99.8276 112.8 99.8276 114C99.8276 115.2 100.8 116.172 102 116.172C103.2 116.172 104.172 115.2 104.172 114C104.172 112.8 103.2 111.828 102 111.828Z" fill="#FFD1D9" fill-opacity="0.2"/>
<path d="M102 99.7598C100.763 99.7598 99.7596 100.763 99.7596 102C99.7596 103.237 100.763 104.24 102 104.24C103.237 104.24 104.24 103.237 104.24 102C104.24 100.763 103.237 99.7598 102 99.7598Z" fill="#FFD1D9" fill-opacity="0.2"/>
<path d="M102 87.7082C100.734 87.7082 99.7083 88.7343 99.7083 90.0001C99.7083 91.2658 100.734 92.2919 102 92.2919C103.266 92.2919 104.292 91.2658 104.292 90.0001C104.292 88.7343 103.266 87.7082 102 87.7082Z" fill="#FFD1D9" fill-opacity="0.2"/>
<path d="M102 75.674C100.716 75.674 99.6741 76.7154 99.6741 78.0001C99.6741 79.2847 100.716 80.3261 102 80.3261C103.285 80.3261 104.326 79.2847 104.326 78.0001C104.326 76.7154 103.285 75.674 102 75.674Z" fill="#FFD1D9" fill-opacity="0.2"/>
<path d="M102 63.6572C100.706 63.6572 99.657 64.7061 99.657 66.0001C99.657 67.294 100.706 68.3429 102 68.3429C103.294 68.3429 104.343 67.294 104.343 66.0001C104.343 64.7061 103.294 63.6572 102 63.6572Z" fill="#FFD1D9" fill-opacity="0.2"/>
<path d="M102 51.6562C100.705 51.6562 99.6561 52.7056 99.6561 54.0001C99.6561 55.2945 100.705 56.3439 102 56.3439C103.294 56.3439 104.344 55.2945 104.344 54.0001C104.344 52.7056 103.294 51.6562 102 51.6562Z" fill="#FFD1D9" fill-opacity="0.2"/>
<path d="M102 39.6685C100.712 39.6685 99.6685 40.7124 99.6685 42.0001C99.6685 43.2878 100.712 44.3316 102 44.3316C103.288 44.3316 104.332 43.2878 104.332 42.0001C104.332 40.7124 103.288 39.6685 102 39.6685Z" fill="#FFD1D9" fill-opacity="0.2"/>
<path d="M102 27.6904C100.724 27.6904 99.6903 28.7245 99.6903 30.0001C99.6903 31.2756 100.724 32.3097 102 32.3097C103.276 32.3097 104.31 31.2756 104.31 30.0001C104.31 28.7245 103.276 27.6904 102 27.6904Z" fill="#FFD1D9" fill-opacity="0.2"/>
<path d="M102 15.7177C100.739 15.7177 99.7174 16.7395 99.7174 18.0001C99.7174 19.2606 100.739 20.2825 102 20.2825C103.26 20.2825 104.282 19.2606 104.282 18.0001C104.282 16.7395 103.26 15.7177 102 15.7177Z" fill="#FFD1D9" fill-opacity="0.2"/>
<path d="M102 3.74594C100.755 3.74594 99.7457 4.75515 99.7457 6.00007C99.7457 7.24499 100.755 8.2542 102 8.2542C103.245 8.2542 104.254 7.24499 104.254 6.00007C104.254 4.75515 103.245 3.74594 102 3.74594Z" fill="#FFD1D9" fill-opacity="0.2"/>
<path d="M89.9998 111.755C88.7597 111.755 87.7544 112.76 87.7544 114C87.7544 115.24 88.7597 116.245 89.9998 116.245C91.2398 116.245 92.2451 115.24 92.2451 114C92.2451 112.76 91.2398 111.755 89.9998 111.755Z" fill="#FFD1D9" fill-opacity="0.2"/>
<path d="M89.9998 99.6785C88.7176 99.6785 87.6782 100.718 87.6782 102C87.6782 103.282 88.7176 104.322 89.9998 104.322C91.2819 104.322 92.3213 103.282 92.3213 102C92.3213 100.718 91.2819 99.6785 89.9998 99.6785Z" fill="#FFD1D9" fill-opacity="0.2"/>
<path d="M90 87.6167C88.6837 87.6167 87.6167 88.6838 87.6167 90.0001C87.6167 91.3163 88.6837 92.3834 90 92.3834C91.3162 92.3834 92.3833 91.3163 92.3833 90.0001C92.3833 88.6838 91.3162 87.6167 90 87.6167Z" fill="#FFD1D9" fill-opacity="0.2"/>
<path d="M90.0001 75.5705C88.6583 75.5705 87.5706 76.6583 87.5706 78.0001C87.5706 79.3419 88.6583 80.4296 90.0001 80.4296C91.3419 80.4296 92.4297 79.3419 92.4297 78.0001C92.4297 76.6583 91.3419 75.5705 90.0001 75.5705Z" fill="#FFD1D9" fill-opacity="0.2"/>
<path d="M89.9998 63.5399C88.6411 63.5399 87.5397 64.6414 87.5397 66.0001C87.5397 67.3588 88.6411 68.4602 89.9998 68.4602C91.3585 68.4602 92.46 67.3588 92.46 66.0001C92.46 64.6414 91.3585 63.5399 89.9998 63.5399Z" fill="#FFD1D9" fill-opacity="0.2"/>
<path d="M89.9999 51.5239C88.6324 51.5239 87.5238 52.6325 87.5238 54.0001C87.5238 55.3676 88.6324 56.4762 89.9999 56.4762C91.3675 56.4762 92.4761 55.3676 92.4761 54.0001C92.4761 52.6325 91.3675 51.5239 89.9999 51.5239Z" fill="#FFD1D9" fill-opacity="0.2"/>
<path d="M90.0002 39.5202C88.6306 39.5202 87.5203 40.6305 87.5203 42.0001C87.5203 43.3696 88.6306 44.4799 90.0002 44.4799C91.3697 44.4799 92.48 43.3696 92.48 42.0001C92.48 40.6305 91.3697 39.5202 90.0002 39.5202Z" fill="#FFD1D9" fill-opacity="0.2"/>
<path d="M89.9999 27.5258C88.6334 27.5258 87.5256 28.6336 87.5256 30.0001C87.5256 31.3666 88.6334 32.4743 89.9999 32.4743C91.3664 32.4743 92.4741 31.3666 92.4741 30.0001C92.4741 28.6336 91.3664 27.5258 89.9999 27.5258Z" fill="#FFD1D9" fill-opacity="0.2"/>
<path d="M89.9998 15.537C88.6395 15.537 87.5367 16.6397 87.5367 18.0001C87.5367 19.3604 88.6395 20.4632 89.9998 20.4632C91.3601 20.4632 92.4629 19.3604 92.4629 18.0001C92.4629 16.6397 91.3601 15.537 89.9998 15.537Z" fill="#FFD1D9" fill-opacity="0.2"/>
<path d="M90.0002 3.55009C88.6471 3.55009 87.5502 4.64698 87.5502 6.00007C87.5502 7.35316 88.6471 8.45005 90.0002 8.45005C91.3533 8.45005 92.4502 7.35316 92.4502 6.00007C92.4502 4.64698 91.3533 3.55009 90.0002 3.55009Z" fill="#FFD1D9" fill-opacity="0.2"/>
<path d="M78 111.687C76.7223 111.687 75.6866 112.722 75.6866 114C75.6866 115.278 76.7223 116.313 78 116.313C79.2776 116.313 80.3134 115.278 80.3134 114C80.3134 112.722 79.2776 111.687 78 111.687Z" fill="#FFD1D9" fill-opacity="0.2"/>
<path d="M78.0002 99.6028C76.6762 99.6028 75.6029 100.676 75.6029 102C75.6029 103.324 76.6762 104.397 78.0002 104.397C79.3242 104.397 80.3975 103.324 80.3975 102C80.3975 100.676 79.3242 99.6028 78.0002 99.6028Z" fill="#FFD1D9" fill-opacity="0.2"/>
<path d="M77.9998 87.5307C76.636 87.5307 75.5304 88.6363 75.5304 90.0001C75.5304 91.3639 76.636 92.4695 77.9998 92.4695C79.3636 92.4695 80.4692 91.3639 80.4692 90.0001C80.4692 88.6363 79.3636 87.5307 77.9998 87.5307Z" fill="#FFD1D9" fill-opacity="0.2"/>
<path d="M77.9998 75.4716C76.6034 75.4716 75.4714 76.6036 75.4714 78.0001C75.4714 79.3965 76.6034 80.5285 77.9998 80.5285C79.3963 80.5285 80.5283 79.3965 80.5283 78.0001C80.5283 76.6036 79.3963 75.4716 77.9998 75.4716Z" fill="#FFD1D9" fill-opacity="0.2"/>
<path d="M78 63.4259C76.5783 63.4259 75.4258 64.5784 75.4258 66.0001C75.4258 67.4218 76.5783 68.5743 78 68.5743C79.4217 68.5743 80.5742 67.4218 80.5742 66.0001C80.5742 64.5784 79.4217 63.4259 78 63.4259Z" fill="#FFD1D9" fill-opacity="0.2"/>
<path d="M78.0002 51.3928C76.5602 51.3928 75.3929 52.5601 75.3929 54.0001C75.3929 55.44 76.5602 56.6073 78.0002 56.6073C79.4401 56.6073 80.6074 55.44 80.6074 54.0001C80.6074 52.5601 79.4401 51.3928 78.0002 51.3928Z" fill="#FFD1D9" fill-opacity="0.2"/>
<path d="M78.0001 39.3708C76.548 39.3708 75.3708 40.548 75.3708 42.0001C75.3708 43.4522 76.548 44.6293 78.0001 44.6293C79.4521 44.6293 80.6293 43.4522 80.6293 42.0001C80.6293 40.548 79.4521 39.3708 78.0001 39.3708Z" fill="#FFD1D9" fill-opacity="0.2"/>
<path d="M78.0001 27.3576C76.5407 27.3576 75.3577 28.5407 75.3577 30.0001C75.3577 31.4595 76.5407 32.6425 78.0001 32.6425C79.4595 32.6425 80.6426 31.4595 80.6426 30.0001C80.6426 28.5407 79.4595 27.3576 78.0001 27.3576Z" fill="#FFD1D9" fill-opacity="0.2"/>
<path d="M77.9998 15.3504C76.5364 15.3504 75.3501 16.5367 75.3501 18.0001C75.3501 19.4634 76.5364 20.6497 77.9998 20.6497C79.4631 20.6497 80.6494 19.4634 80.6494 18.0001C80.6494 16.5367 79.4631 15.3504 77.9998 15.3504Z" fill="#FFD1D9" fill-opacity="0.2"/>
<path d="M78 3.34672C76.5346 3.34672 75.3466 4.53466 75.3466 6.00006C75.3466 7.46546 76.5346 8.6534 78 8.6534C79.4654 8.6534 80.6533 7.46546 80.6533 6.00006C80.6533 4.53466 79.4654 3.34672 78 3.34672Z" fill="#FFD1D9" fill-opacity="0.2"/>
<path d="M66.0002 111.621C64.6865 111.621 63.6215 112.686 63.6215 114C63.6215 115.314 64.6865 116.379 66.0002 116.379C67.3139 116.379 68.3789 115.314 68.3789 114C68.3789 112.686 67.3139 111.621 66.0002 111.621Z" fill="#FFD1D9" fill-opacity="0.2"/>
<path d="M66.0001 99.5309C64.6364 99.5309 63.5309 100.636 63.5309 102C63.5309 103.364 64.6364 104.469 66.0001 104.469C67.3637 104.469 68.4692 103.364 68.4692 102C68.4692 100.636 67.3637 99.5309 66.0001 99.5309Z" fill="#FFD1D9" fill-opacity="0.2"/>
<path d="M65.9999 87.4491C64.591 87.4491 63.4489 88.5912 63.4489 90.0001C63.4489 91.4089 64.591 92.5511 65.9999 92.5511C67.4088 92.5511 68.5508 91.4089 68.5508 90.0001C68.5508 88.5912 67.4088 87.4491 65.9999 87.4491Z" fill="#FFD1D9" fill-opacity="0.2"/>
<path d="M66.0002 75.3772C64.5516 75.3772 63.3773 76.5515 63.3773 78.0001C63.3773 79.4486 64.5516 80.6229 66.0002 80.6229C67.4488 80.6229 68.623 79.4486 68.623 78.0001C68.623 76.5515 67.4488 75.3772 66.0002 75.3772Z" fill="#FFD1D9" fill-opacity="0.2"/>
<path d="M65.9999 63.3159C64.5175 63.3159 63.3158 64.5177 63.3158 66.0001C63.3158 67.4825 64.5175 68.6842 65.9999 68.6842C67.4824 68.6842 68.6841 67.4825 68.6841 66.0001C68.6841 64.5177 67.4824 63.3159 65.9999 63.3159Z" fill="#FFD1D9" fill-opacity="0.2"/>
<path d="M65.9999 51.2651C64.4894 51.2651 63.2649 52.4896 63.2649 54.0001C63.2649 55.5105 64.4894 56.735 65.9999 56.735C67.5104 56.735 68.7349 55.5105 68.7349 54.0001C68.7349 52.4896 67.5104 51.2651 65.9999 51.2651Z" fill="#FFD1D9" fill-opacity="0.2"/>
<path d="M66.0002 39.2239C64.467 39.2239 63.2241 40.4669 63.2241 42.0001C63.2241 43.5333 64.467 44.7762 66.0002 44.7762C67.5334 44.7762 68.7764 43.5333 68.7764 42.0001C68.7764 40.4669 67.5334 39.2239 66.0002 39.2239Z" fill="#FFD1D9" fill-opacity="0.2"/>
<path d="M66.0001 27.1911C64.4488 27.1911 63.1912 28.4487 63.1912 30.0001C63.1912 31.5514 64.4488 32.809 66.0001 32.809C67.5515 32.809 68.8091 31.5514 68.8091 30.0001C68.8091 28.4487 67.5515 27.1911 66.0001 27.1911Z" fill="#FFD1D9" fill-opacity="0.2"/>
<path d="M66.0001 15.1652C64.4345 15.1652 63.1653 16.4344 63.1653 18.0001C63.1653 19.5657 64.4345 20.8349 66.0001 20.8349C67.5658 20.8349 68.835 19.5657 68.835 18.0001C68.835 16.4344 67.5658 15.1652 66.0001 15.1652Z" fill="#FFD1D9" fill-opacity="0.2"/>
<path d="M66.0001 3.14471C64.4231 3.14471 63.1447 4.4231 63.1447 6.00007C63.1447 7.57705 64.4231 8.85544 66.0001 8.85544C67.5771 8.85544 68.8555 7.57705 68.8555 6.00007C68.8555 4.4231 67.5771 3.14471 66.0001 3.14471Z" fill="#FFD1D9" fill-opacity="0.2"/>
<path d="M54 111.556C52.6501 111.556 51.5557 112.65 51.5557 114C51.5557 115.35 52.6501 116.444 54 116.444C55.35 116.444 56.4443 115.35 56.4443 114C56.4443 112.65 55.35 111.556 54 111.556Z" fill="#FFD1D9" fill-opacity="0.2"/>
<path d="M54 99.4606C52.5975 99.4606 51.4604 100.598 51.4604 102C51.4604 103.403 52.5975 104.54 54 104.54C55.4026 104.54 56.5396 103.403 56.5396 102C56.5396 100.598 55.4026 99.4606 54 99.4606Z" fill="#FFD1D9" fill-opacity="0.2"/>
<path d="M53.9998 87.3705C52.5475 87.3705 51.3702 88.5478 51.3702 90.0001C51.3702 91.4523 52.5475 92.6296 53.9998 92.6296C55.4521 92.6296 56.6294 91.4523 56.6294 90.0001C56.6294 88.5478 55.4521 87.3705 53.9998 87.3705Z" fill="#FFD1D9" fill-opacity="0.2"/>
<path d="M53.9997 75.287C52.5014 75.287 51.2867 76.5017 51.2867 78.0001C51.2867 79.4984 52.5014 80.7131 53.9997 80.7131C55.4981 80.7131 56.7128 79.4984 56.7128 78.0001C56.7128 76.5017 55.4981 75.287 53.9997 75.287Z" fill="#FFD1D9" fill-opacity="0.2"/>
<path d="M54.0002 63.2112C52.4599 63.2112 51.2113 64.4598 51.2113 66.0001C51.2113 67.5403 52.4599 68.789 54.0002 68.789C55.5404 68.789 56.7891 67.5403 56.7891 66.0001C56.7891 64.4598 55.5404 63.2112 54.0002 63.2112Z" fill="#FFD1D9" fill-opacity="0.2"/>
<path d="M53.9999 51.1435C52.4222 51.1435 51.1433 52.4224 51.1433 54.0001C51.1433 55.5777 52.4222 56.8566 53.9999 56.8566C55.5775 56.8566 56.8564 55.5777 56.8564 54.0001C56.8564 52.4224 55.5775 51.1435 53.9999 51.1435Z" fill="#FFD1D9" fill-opacity="0.2"/>
<path d="M54.0001 39.0842C52.3897 39.0842 51.0844 40.3897 51.0844 42.0001C51.0844 43.6105 52.3897 44.916 54.0001 44.916C55.6105 44.916 56.916 43.6105 56.916 42.0001C56.916 40.3897 55.6105 39.0842 54.0001 39.0842Z" fill="#FFD1D9" fill-opacity="0.2"/>
<path d="M53.9998 27.0331C52.3611 27.0331 51.0328 28.3614 51.0328 30.0001C51.0328 31.6387 52.3611 32.9671 53.9998 32.9671C55.6384 32.9671 56.9668 31.6387 56.9668 30.0001C56.9668 28.3614 55.6384 27.0331 53.9998 27.0331Z" fill="#FFD1D9" fill-opacity="0.2"/>
<path d="M54.0002 14.9896C52.3375 14.9896 50.9897 16.3374 50.9897 18.0001C50.9897 19.6627 52.3375 21.0106 54.0002 21.0106C55.6628 21.0106 57.0106 19.6627 57.0106 18.0001C57.0106 16.3374 55.6628 14.9896 54.0002 14.9896Z" fill="#FFD1D9" fill-opacity="0.2"/>
<path d="M53.9998 2.95304C52.317 2.95304 50.9528 4.31724 50.9528 6.00006C50.9528 7.68289 52.317 9.04709 53.9998 9.04709C55.6827 9.04709 57.0469 7.68289 57.0469 6.00006C57.0469 4.31724 55.6827 2.95304 53.9998 2.95304Z" fill="#FFD1D9" fill-opacity="0.2"/>
<path d="M42.0002 111.487C40.6123 111.487 39.4871 112.612 39.4871 114C39.4871 115.388 40.6123 116.513 42.0002 116.513C43.3881 116.513 44.5133 115.388 44.5133 114C44.5133 112.612 43.3881 111.487 42.0002 111.487Z" fill="#FFD1D9" fill-opacity="0.2"/>
<path d="M42.0001 99.3898C40.5584 99.3898 39.3898 100.558 39.3898 102C39.3898 103.442 40.5584 104.61 42.0001 104.61C43.4417 104.61 44.6104 103.442 44.6104 102C44.6104 100.558 43.4417 99.3898 42.0001 99.3898Z" fill="#FFD1D9" fill-opacity="0.2"/>
<path d="M42.0001 87.2941C40.5057 87.2941 39.2942 88.5056 39.2942 90.0001C39.2942 91.4945 40.5057 92.706 42.0001 92.706C43.4946 92.706 44.7061 91.4945 44.7061 90.0001C44.7061 88.5056 43.4946 87.2941 42.0001 87.2941Z" fill="#FFD1D9" fill-opacity="0.2"/>
<path d="M42.0001 75.2017C40.4546 75.2017 39.2017 76.4546 39.2017 78.0001C39.2017 79.5456 40.4546 80.7984 42.0001 80.7984C43.5456 80.7984 44.7984 79.5456 44.7984 78.0001C44.7984 76.4546 43.5456 75.2017 42.0001 75.2017Z" fill="#FFD1D9" fill-opacity="0.2"/>
<path d="M42.0002 63.114C40.4063 63.114 39.1141 64.4061 39.1141 66.0001C39.1141 67.594 40.4063 68.8861 42.0002 68.8861C43.5941 68.8861 44.8862 67.594 44.8862 66.0001C44.8862 64.4061 43.5941 63.114 42.0002 63.114Z" fill="#FFD1D9" fill-opacity="0.2"/>
<path d="M42 51.0323C40.361 51.0323 39.0323 52.361 39.0323 54.0001C39.0323 55.6391 40.361 56.9678 42 56.9678C43.6391 56.9678 44.9678 55.6391 44.9678 54.0001C44.9678 52.361 43.6391 51.0323 42 51.0323Z" fill="#FFD1D9" fill-opacity="0.2"/>
<path d="M42 38.9576C40.3197 38.9576 38.9576 40.3198 38.9576 42.0001C38.9576 43.6804 40.3197 45.0425 42 45.0425C43.6803 45.0425 45.0425 43.6804 45.0425 42.0001C45.0425 40.3198 43.6803 38.9576 42 38.9576Z" fill="#FFD1D9" fill-opacity="0.2"/>
<path d="M41.9999 26.8905C40.2825 26.8905 38.8903 28.2827 38.8903 30.0001C38.8903 31.7174 40.2825 33.1097 41.9999 33.1097C43.7173 33.1097 45.1095 31.7174 45.1095 30.0001C45.1095 28.2827 43.7173 26.8905 41.9999 26.8905Z" fill="#FFD1D9" fill-opacity="0.2"/>
<path d="M42.0002 14.8313C40.2501 14.8313 38.8314 16.25 38.8314 18.0001C38.8314 19.7501 40.2501 21.1688 42.0002 21.1688C43.7502 21.1688 45.1689 19.7501 45.1689 18.0001C45.1689 16.25 43.7502 14.8313 42.0002 14.8313Z" fill="#FFD1D9" fill-opacity="0.2"/>
<path d="M41.9998 2.78018C40.2215 2.78018 38.7799 4.22177 38.7799 6.00006C38.7799 7.77836 40.2215 9.21995 41.9998 9.21995C43.7781 9.21995 45.2197 7.77836 45.2197 6.00006C45.2197 4.22177 43.7781 2.78018 41.9998 2.78018Z" fill="#FFD1D9" fill-opacity="0.2"/>
<path d="M30.0001 111.414C28.572 111.414 27.4142 112.572 27.4142 114C27.4142 115.428 28.572 116.586 30.0001 116.586C31.4282 116.586 32.5859 115.428 32.5859 114C32.5859 112.572 31.4282 111.414 30.0001 111.414Z" fill="#FFD1D9" fill-opacity="0.2"/>
<path d="M29.9999 99.3188C28.519 99.3188 27.3186 100.519 27.3186 102C27.3186 103.481 28.519 104.681 29.9999 104.681C31.4807 104.681 32.6812 103.481 32.6812 102C32.6812 100.519 31.4807 99.3188 29.9999 99.3188Z" fill="#FFD1D9" fill-opacity="0.2"/>
<path d="M30.0002 87.2214C28.4656 87.2214 27.2216 88.4655 27.2216 90.0001C27.2216 91.5347 28.4656 92.7787 30.0002 92.7787C31.5349 92.7787 32.7789 91.5347 32.7789 90.0001C32.7789 88.4655 31.5349 87.2214 30.0002 87.2214Z" fill="#FFD1D9" fill-opacity="0.2"/>
<path d="M29.9999 75.1239C28.4114 75.1239 27.1237 76.4116 27.1237 78.0001C27.1237 79.5885 28.4114 80.8762 29.9999 80.8762C31.5884 80.8762 32.8761 79.5885 32.8761 78.0001C32.8761 76.4116 31.5884 75.1239 29.9999 75.1239Z" fill="#FFD1D9" fill-opacity="0.2"/>
<path d="M30.0002 63.0281C28.3589 63.0281 27.0283 64.3587 27.0283 66.0001C27.0283 67.6414 28.3589 68.972 30.0002 68.972C31.6416 68.972 32.9722 67.6414 32.9722 66.0001C32.9722 64.3587 31.6416 63.0281 30.0002 63.0281Z" fill="#FFD1D9" fill-opacity="0.2"/>
<path d="M29.9998 50.9359C28.3075 50.9359 26.9357 52.3078 26.9357 54.0001C26.9357 55.6923 28.3075 57.0642 29.9998 57.0642C31.6921 57.0642 33.064 55.6923 33.064 54.0001C33.064 52.3078 31.6921 50.9359 29.9998 50.9359Z" fill="#FFD1D9" fill-opacity="0.2"/>
<path d="M29.9999 38.849C28.2596 38.849 26.8488 40.2598 26.8488 42.0001C26.8488 43.7404 28.2596 45.1512 29.9999 45.1512C31.7402 45.1512 33.151 43.7404 33.151 42.0001C33.151 40.2598 31.7402 38.849 29.9999 38.849Z" fill="#FFD1D9" fill-opacity="0.2"/>
<path d="M30.0001 26.7687C28.2155 26.7687 26.7688 28.2154 26.7688 30.0001C26.7688 31.7847 28.2155 33.2314 30.0001 33.2314C31.7847 33.2314 33.2314 31.7847 33.2314 30.0001C33.2314 28.2154 31.7847 26.7687 30.0001 26.7687Z" fill="#FFD1D9" fill-opacity="0.2"/>
<path d="M30 14.6964C28.1754 14.6964 26.6963 16.1755 26.6963 18.0001C26.6963 19.8247 28.1754 21.3038 30 21.3038C31.8246 21.3038 33.3037 19.8247 33.3037 18.0001C33.3037 16.1755 31.8246 14.6964 30 14.6964Z" fill="#FFD1D9" fill-opacity="0.2"/>
<path d="M29.9999 2.6328C28.1402 2.6328 26.6327 4.14037 26.6327 6.00006C26.6327 7.85976 28.1402 9.36733 29.9999 9.36733C31.8596 9.36733 33.3672 7.85976 33.3672 6.00006C33.3672 4.14037 31.8596 2.6328 29.9999 2.6328Z" fill="#FFD1D9" fill-opacity="0.2"/>
<path d="M18.0001 111.339C16.5305 111.339 15.3391 112.53 15.3391 114C15.3391 115.47 16.5305 116.661 18.0001 116.661C19.4698 116.661 20.6611 115.47 20.6611 114C20.6611 112.53 19.4698 111.339 18.0001 111.339Z" fill="#FFD1D9" fill-opacity="0.2"/>
<path d="M17.9999 99.2489C16.4804 99.2489 15.2487 100.481 15.2487 102C15.2487 103.52 16.4804 104.751 17.9999 104.751C19.5193 104.751 20.7511 103.52 20.7511 102C20.7511 100.481 19.5193 99.2489 17.9999 99.2489Z" fill="#FFD1D9" fill-opacity="0.2"/>
<path d="M18.0002 87.1531C16.4279 87.1531 15.1533 88.4277 15.1533 90.0001C15.1533 91.5724 16.4279 92.847 18.0002 92.847C19.5725 92.847 20.8472 91.5724 20.8472 90.0001C20.8472 88.4277 19.5725 87.1531 18.0002 87.1531Z" fill="#FFD1D9" fill-opacity="0.2"/>
<path d="M18.0002 75.0539C16.3731 75.0539 15.054 76.3729 15.054 78.0001C15.054 79.6272 16.3731 80.9463 18.0002 80.9463C19.6273 80.9463 20.9464 79.6272 20.9464 78.0001C20.9464 76.3729 19.6273 75.0539 18.0002 75.0539Z" fill="#FFD1D9" fill-opacity="0.2"/>
<path d="M18.0002 62.9534C16.3176 62.9534 14.9536 64.3175 14.9536 66.0001C14.9536 67.6827 16.3176 69.0467 18.0002 69.0467C19.6828 69.0467 21.0469 67.6827 21.0469 66.0001C21.0469 64.3175 19.6828 62.9534 18.0002 62.9534Z" fill="#FFD1D9" fill-opacity="0.2"/>
<path d="M18.0001 50.8542C16.2627 50.8542 14.8542 52.2626 14.8542 54.0001C14.8542 55.7375 16.2627 57.146 18.0001 57.146C19.7375 57.146 21.146 55.7375 21.146 54.0001C21.146 52.2626 19.7375 50.8542 18.0001 50.8542Z" fill="#FFD1D9" fill-opacity="0.2"/>
<path d="M18.0001 38.7584C16.2098 38.7584 14.7584 40.2098 14.7584 42.0001C14.7584 43.7904 16.2098 45.2417 18.0001 45.2417C19.7904 45.2417 21.2417 43.7904 21.2417 42.0001C21.2417 40.2098 19.7904 38.7584 18.0001 38.7584Z" fill="#FFD1D9" fill-opacity="0.2"/>
<path d="M17.9999 26.6684C16.1599 26.6684 14.6683 28.1601 14.6683 30.0001C14.6683 31.8401 16.1599 33.3317 17.9999 33.3317C19.8399 33.3317 21.3315 31.8401 21.3315 30.0001C21.3315 28.1601 19.8399 26.6684 17.9999 26.6684Z" fill="#FFD1D9" fill-opacity="0.2"/>
<path d="M18.0001 14.5861C16.1146 14.5861 14.5862 16.1146 14.5862 18.0001C14.5862 19.8855 16.1146 21.414 18.0001 21.414C19.8856 21.414 21.4141 19.8855 21.4141 18.0001C21.4141 16.1146 19.8856 14.5861 18.0001 14.5861Z" fill="#FFD1D9" fill-opacity="0.2"/>
<path d="M17.9998 2.51315C16.074 2.51315 14.5129 4.07429 14.5129 6.00007C14.5129 7.92584 16.074 9.48699 17.9998 9.48699C19.9256 9.48699 21.4867 7.92584 21.4867 6.00007C21.4867 4.07429 19.9256 2.51315 17.9998 2.51315Z" fill="#FFD1D9" fill-opacity="0.2"/>
<path d="M5.99997 111.261C4.48714 111.261 3.26074 112.487 3.26074 114C3.26074 115.513 4.48714 116.739 5.99997 116.739C7.51281 116.739 8.73921 115.513 8.73921 114C8.73921 112.487 7.51281 111.261 5.99997 111.261Z" fill="#FFD1D9" fill-opacity="0.2"/>
<path d="M6.00005 99.1779C4.44139 99.1779 3.17786 100.441 3.17786 102C3.17786 103.559 4.44139 104.822 6.00005 104.822C7.5587 104.822 8.82224 103.559 8.82224 102C8.82224 100.441 7.5587 99.1779 6.00005 99.1779Z" fill="#FFD1D9" fill-opacity="0.2"/>
<path d="M6.0002 87.0862C4.3909 87.0862 3.0863 88.3908 3.0863 90.0001C3.0863 91.6094 4.3909 92.914 6.0002 92.914C7.6095 92.914 8.91409 91.6094 8.91409 90.0001C8.91409 88.3908 7.6095 87.0862 6.0002 87.0862Z" fill="#FFD1D9" fill-opacity="0.2"/>
<path d="M6.00011 74.988C4.33659 74.988 2.98804 76.3366 2.98804 78.0001C2.98804 79.6636 4.33659 81.0121 6.00011 81.0121C7.66363 81.0121 9.01218 79.6636 9.01218 78.0001C9.01218 76.3366 7.66363 74.988 6.00011 74.988Z" fill="#FFD1D9" fill-opacity="0.2"/>
<path d="M6.00025 62.8861C4.28043 62.8861 2.88623 64.2802 2.88623 66.0001C2.88623 67.7199 4.28043 69.1141 6.00025 69.1141C7.72007 69.1141 9.11427 67.7199 9.11427 66.0001C9.11427 64.2802 7.72007 62.8861 6.00025 62.8861Z" fill="#FFD1D9" fill-opacity="0.2"/>
<path d="M5.99992 50.7832C4.22331 50.7832 2.78308 52.2235 2.78308 54.0001C2.78308 55.7767 4.22331 57.2169 5.99992 57.2169C7.77652 57.2169 9.21675 55.7767 9.21675 54.0001C9.21675 52.2235 7.77652 50.7832 5.99992 50.7832Z" fill="#FFD1D9" fill-opacity="0.2"/>
<path d="M5.99981 38.6825C4.16757 38.6825 2.68225 40.1678 2.68225 42.0001C2.68225 43.8323 4.16757 45.3176 5.99981 45.3176C7.83205 45.3176 9.31737 43.8323 9.31737 42.0001C9.31737 40.1678 7.83205 38.6825 5.99981 38.6825Z" fill="#FFD1D9" fill-opacity="0.2"/>
<path d="M6.0002 26.5867C4.11503 26.5867 2.58679 28.1149 2.58679 30.0001C2.58679 31.8852 4.11503 33.4135 6.0002 33.4135C7.88537 33.4135 9.4136 31.8852 9.4136 30.0001C9.4136 28.1149 7.88537 26.5867 6.0002 26.5867Z" fill="#FFD1D9" fill-opacity="0.2"/>
<path d="M6.00018 14.4983C4.0662 14.4983 2.49841 16.0661 2.49841 18.0001C2.49841 19.934 4.0662 21.5018 6.00018 21.5018C7.93415 21.5018 9.50194 19.934 9.50194 18.0001C9.50194 16.0661 7.93415 14.4983 6.00018 14.4983Z" fill="#FFD1D9" fill-opacity="0.2"/>
<path d="M6.00018 2.41969C4.02279 2.41969 2.4198 4.02268 2.4198 6.00006C2.4198 7.97745 4.02279 9.58044 6.00018 9.58044C7.97757 9.58044 9.58056 7.97745 9.58056 6.00006C9.58056 4.02268 7.97757 2.41969 6.00018 2.41969Z" fill="#FFD1D9" fill-opacity="0.2"/>
</svg>
