<svg width="12" height="11" viewBox="0 0 12 11" fill="none" xmlns="http://www.w3.org/2000/svg">
<path d="M9.80156 3.40283C9.675 3.36064 9.54844 3.3208 9.42188 3.2833C9.44297 3.19658 9.46172 3.10986 9.48047 3.02314C9.76875 1.62627 9.57891 0.503613 8.93906 0.133301C8.32266 -0.220606 7.31719 0.147363 6.3 1.0333C6.19922 1.12002 6.10078 1.21143 6.00703 1.30283C5.94375 1.24189 5.87812 1.18096 5.8125 1.12236C4.74609 0.175488 3.67734 -0.222949 3.0375 0.149707C2.42344 0.505957 2.24062 1.56299 2.49844 2.88486C2.52422 3.01611 2.55234 3.14502 2.58516 3.27627C2.43516 3.31846 2.2875 3.36533 2.14922 3.41455C0.897656 3.84814 0 4.53252 0 5.24033C0 5.97158 0.95625 6.70518 2.25703 7.15049C2.3625 7.18564 2.46797 7.2208 2.57578 7.25127C2.54063 7.39189 2.51016 7.53018 2.48203 7.67314C2.23594 8.97393 2.42813 10.0052 3.04219 10.3591C3.675 10.7247 4.73906 10.3497 5.775 9.44268C5.85703 9.37002 5.93906 9.29502 6.02109 9.21533C6.12422 9.31611 6.23203 9.41221 6.33984 9.50596C7.34297 10.3685 8.33438 10.7177 8.94609 10.3638C9.57891 9.99814 9.78516 8.88955 9.51797 7.53955C9.49688 7.43643 9.47344 7.33096 9.44766 7.22314C9.52266 7.20205 9.59531 7.17861 9.66797 7.15518C11.0203 6.70752 12 5.9833 12 5.24033C12 4.53018 11.0766 3.84111 9.80156 3.40283ZM6.63047 1.41299C7.50234 0.653613 8.31563 0.355957 8.68594 0.569238C9.08203 0.796582 9.23437 1.71533 8.98594 2.92236C8.96953 3.00205 8.95313 3.07939 8.93203 3.15674C8.41172 3.03955 7.88437 2.95518 7.35469 2.9083C7.05 2.47236 6.71719 2.05518 6.35625 1.66377C6.44766 1.57705 6.53672 1.49502 6.63047 1.41299ZM3.91875 6.45674C4.03828 6.66064 4.16016 6.86455 4.28906 7.06377C3.92344 7.02393 3.56016 6.96533 3.20156 6.88799C3.30469 6.55049 3.43359 6.20127 3.58359 5.84502C3.69141 6.05127 3.80156 6.25518 3.91875 6.45674ZM3.20859 3.63721C3.54609 3.56221 3.90469 3.50127 4.27734 3.45439C4.15312 3.64893 4.03125 3.84814 3.91641 4.04971C3.80156 4.24893 3.68906 4.45283 3.58359 4.65908C3.43594 4.30986 3.31172 3.96768 3.20859 3.63721ZM3.85078 5.25205C4.00547 4.92861 4.17422 4.61221 4.35234 4.30049C4.53047 3.98877 4.72266 3.68643 4.92422 3.38877C5.27578 3.36299 5.63437 3.34893 6 3.34893C6.36563 3.34893 6.72656 3.36299 7.07578 3.38877C7.275 3.68408 7.46484 3.98643 7.64531 4.2958C7.82578 4.60518 7.99453 4.92158 8.15391 5.24268C7.99687 5.56611 7.82812 5.88486 7.64766 6.19893C7.46953 6.51064 7.27969 6.81299 7.08047 7.11299C6.73125 7.13877 6.36797 7.15049 6 7.15049C5.63203 7.15049 5.27578 7.13877 4.93125 7.11768C4.72734 6.82002 4.53516 6.51533 4.35469 6.20361C4.17422 5.89189 4.00781 5.57549 3.85078 5.25205ZM8.08359 6.45205C8.20312 6.2458 8.31563 6.03721 8.42578 5.82627C8.57578 6.16611 8.70703 6.51064 8.82187 6.86455C8.45859 6.94658 8.09062 7.00986 7.72031 7.05205C7.84687 6.85518 7.96641 6.65361 8.08359 6.45205ZM8.42109 4.65908C8.31094 4.45283 8.19844 4.24658 8.08125 4.04502C7.96641 3.8458 7.84688 3.64893 7.72266 3.45439C8.1 3.50127 8.46094 3.56455 8.79844 3.64189C8.69062 3.98877 8.56406 4.32627 8.42109 4.65908ZM6.00469 2.02236C6.25078 2.28955 6.48281 2.5708 6.69844 2.86143C6.23437 2.84033 5.76797 2.84033 5.30391 2.86143C5.53359 2.55908 5.77031 2.27783 6.00469 2.02236ZM3.28594 0.585644C3.67969 0.355957 4.55391 0.684082 5.475 1.49971C5.53359 1.55127 5.59219 1.60752 5.65312 1.66377C5.28984 2.05518 4.95469 2.47236 4.64766 2.9083C4.11797 2.95518 3.59297 3.03721 3.07266 3.15205C3.04219 3.03252 3.01641 2.91064 2.99062 2.78877C2.77031 1.65439 2.91562 0.798926 3.28594 0.585644ZM2.71172 6.76377C2.61328 6.73564 2.51719 6.70518 2.42109 6.67236C1.92188 6.51533 1.35469 6.26689 0.944531 5.94111C0.707812 5.77705 0.548437 5.52393 0.503906 5.24033C0.503906 4.81143 1.24453 4.26299 2.31328 3.89033C2.44687 3.84346 2.58281 3.80127 2.71875 3.76143C2.87813 4.27002 3.07031 4.76924 3.29297 5.25205C3.06797 5.74189 2.87344 6.24814 2.71172 6.76377ZM5.44453 9.06064C5.05781 9.41455 4.61016 9.6958 4.12266 9.88799C3.8625 10.0122 3.5625 10.0239 3.29531 9.91846C2.92266 9.70283 2.76797 8.87549 2.97891 7.76221C3.00469 7.63096 3.03281 7.49971 3.06563 7.3708C3.59063 7.4833 4.12031 7.56064 4.65703 7.60049C4.96641 8.03877 5.30625 8.4583 5.66953 8.85205C5.59453 8.92471 5.51953 8.99502 5.44453 9.06064ZM6.01875 8.49111C5.77969 8.2333 5.54062 7.94736 5.30859 7.64033C5.53359 7.64971 5.76562 7.65439 6 7.65439C6.24141 7.65439 6.47812 7.64971 6.7125 7.63799C6.49687 7.93564 6.26484 8.21924 6.01875 8.49111ZM9.08203 9.19424C9.06094 9.48018 8.92031 9.74736 8.69531 9.92783C8.32266 10.1435 7.52813 9.86221 6.67031 9.12627C6.57188 9.04189 6.47344 8.95049 6.37266 8.85674C6.73125 8.46064 7.06172 8.04111 7.36172 7.60049C7.89844 7.55596 8.43281 7.47393 8.96016 7.35439C8.98359 7.45049 9.00469 7.54658 9.02344 7.64033C9.13828 8.14658 9.15703 8.67393 9.08203 9.19424ZM9.50859 6.67471C9.44297 6.6958 9.37734 6.71689 9.30938 6.73564C9.14531 6.22471 8.94375 5.72549 8.71172 5.24033C8.93672 4.76221 9.12656 4.27002 9.28594 3.76611C9.40781 3.80127 9.525 3.83877 9.6375 3.87627C10.7297 4.25127 11.4961 4.80908 11.4961 5.23564C11.4961 5.69502 10.6781 6.28799 9.50859 6.67471ZM6 6.32314C6.59297 6.32314 7.07344 5.84268 7.07344 5.24971C7.07344 4.65674 6.59297 4.17627 6 4.17627C5.40703 4.17627 4.92656 4.65674 4.92656 5.24971C4.92656 5.84268 5.40703 6.32314 6 6.32314Z" fill="url(#paint0_linear_1571_1357)"/>
<defs>
<linearGradient id="paint0_linear_1571_1357" x1="0" y1="5.25028" x2="13.9119" y2="5.25028" gradientUnits="userSpaceOnUse">
<stop stopColor="#D6409F"/>
<stop offset="1" stopColor="#E54D2E"/>
</linearGradient>
</defs>
</svg>
