<svg width="12" height="12" viewBox="0 0 12 12" fill="none" xmlns="http://www.w3.org/2000/svg">
<path d="M0.5625 0C0.251 0 0 0.251 0 0.5625V11.4375C0 11.749 0.251 12 0.5625 12H11.4375C11.749 12 12 11.749 12 11.4375V0.5625C12 0.251 11.749 0 11.4375 0H0.5625ZM9.244 4.875C9.55 4.875 9.821 4.8935 10.0575 4.9305C10.2806 4.96392 10.4995 5.02091 10.7105 5.1005V6.3295C10.6092 6.25944 10.5016 6.19901 10.389 6.149C10.2729 6.09677 10.1531 6.05331 10.0305 6.019C9.7983 5.9543 9.55854 5.92067 9.3175 5.919C9.1675 5.919 9.031 5.933 8.908 5.962C8.79837 5.98545 8.69321 6.0263 8.5965 6.083C8.5115 6.135 8.4465 6.1975 8.4 6.27C8.35323 6.34307 8.3289 6.42825 8.33 6.515C8.33 6.613 8.3565 6.7015 8.408 6.7795C8.46 6.8575 8.534 6.9315 8.6295 7.0015C8.725 7.0715 8.841 7.1395 8.9775 7.2065C9.114 7.274 9.2685 7.3435 9.4405 7.4145C9.6755 7.513 9.8865 7.618 10.0735 7.7285C10.2605 7.8395 10.421 7.965 10.555 8.105C10.689 8.2445 10.791 8.404 10.862 8.5835C10.933 8.763 10.969 8.9715 10.969 9.21C10.969 9.5385 10.9065 9.815 10.7825 10.038C10.6613 10.2579 10.4875 10.4443 10.2765 10.5805C10.0491 10.7247 9.79705 10.8257 9.533 10.8785C9.25 10.9385 8.9515 10.9685 8.638 10.9685C8.32945 10.9699 8.02145 10.9424 7.718 10.8865C7.45546 10.8411 7.20084 10.7581 6.962 10.64V9.325C7.41389 9.70956 7.98713 9.92207 8.5805 9.925C8.747 9.925 8.8925 9.91 9.0165 9.88C9.141 9.85 9.2445 9.808 9.328 9.755C9.411 9.701 9.473 9.638 9.5145 9.565C9.56037 9.48001 9.58123 9.38376 9.57469 9.2874C9.56814 9.19104 9.53444 9.09851 9.4775 9.0205C9.40321 8.92219 9.31235 8.83759 9.209 8.7705C9.08083 8.68554 8.94587 8.61129 8.8055 8.5485C8.63912 8.47252 8.47126 8.39984 8.302 8.3305C7.843 8.139 7.501 7.9045 7.2755 7.628C7.0505 7.3515 6.9375 7.017 6.9375 6.6255C6.9375 6.3185 6.999 6.055 7.122 5.8345C7.245 5.614 7.412 5.4325 7.624 5.29C7.84823 5.14207 8.09717 5.03556 8.359 4.9755C8.64899 4.90713 8.94606 4.87339 9.244 4.875ZM1.6875 4.969H6.469V6.052H4.753V10.875H3.3945V6.052H1.6875V4.969Z" fill="url(#paint0_linear_1571_1361)"/>
<defs>
<linearGradient id="paint0_linear_1571_1361" x1="0" y1="6" x2="13.9119" y2="6" gradientUnits="userSpaceOnUse">
<stop stop-color="#D6409F"/>
<stop offset="1" stop-color="#E54D2E"/>
</linearGradient>
</defs>
</svg>
