<svg width="512" height="512" viewBox="0 0 512 512" fill="none" xmlns="http://www.w3.org/2000/svg">
<g clip-path="url(#clip0_121_7)">
<path d="M482.435 296.745L482.421 215.255L482.416 188.091L482.408 145.605C482.407 133.998 476.693 123.216 467.268 116.659C466.456 116.094 465.626 115.549 464.759 115.048L441.048 101.364L418.85 88.5538L400.98 78.2408L305.981 23.415L285.986 11.876L273.596 4.72499C262.678 -1.577 249.226 -1.575 238.309 4.73099L226.002 11.839L206.009 23.387L111.024 78.2498L81.0767 95.5458L58.8857 108.364L47.1888 115.12C46.3478 115.606 45.5408 116.135 44.7498 116.681C35.2848 123.237 29.5488 134.046 29.5498 145.682L29.5568 188.092L29.5618 215.256L29.5758 296.746L29.5808 323.91L29.5878 366.395C29.5908 378.002 35.3028 388.784 44.7278 395.341C45.5398 395.906 46.3698 396.451 47.2368 396.952L70.6137 410.443L92.8117 423.254L111.016 433.76L206.014 488.586L226.009 500.125L238.399 507.276C249.317 513.578 262.769 513.574 273.686 507.27L285.993 500.162L305.988 488.614L400.977 433.751L428.302 417.969L450.493 405.151L464.812 396.881C465.653 396.395 466.46 395.868 467.251 395.319C476.716 388.763 482.452 377.954 482.451 366.318L482.443 323.908L482.435 296.745Z" fill="#F5F5F5"/>
<path d="M305.984 488.613L400.973 433.75L305.984 349.202V488.613Z" fill="#41479B"/>
<path d="M400.983 78.2405L305.984 23.4146V162.798L400.983 78.2405Z" fill="#41479B"/>
<path d="M111.015 433.758L206.013 488.584V349.202L111.015 433.758Z" fill="#41479B"/>
<path d="M467.249 395.318C476.714 388.762 482.45 377.953 482.449 366.317L482.441 323.907H387.02L467.249 395.318Z" fill="#41479B"/>
<path d="M29.5801 323.909L29.5871 366.394C29.5901 378.001 35.3021 388.783 44.7271 395.34L124.979 323.908H29.5801V323.909Z" fill="#41479B"/>
<path d="M44.7508 116.68C35.2858 123.236 29.5498 134.045 29.5508 145.681L29.5578 188.091H124.979L44.7508 116.68Z" fill="#41479B"/>
<path d="M482.418 188.091L482.41 145.605C482.409 133.998 476.695 123.216 467.27 116.659L387.018 188.091H482.418Z" fill="#41479B"/>
<path d="M206.012 23.3867L111.023 78.2497L206.012 162.798V23.3867Z" fill="#41479B"/>
<path d="M285.99 11.875L273.599 4.72499C262.681 -1.577 249.229 -1.575 238.312 4.73099L226.005 11.839V215.255H29.5615L29.5755 296.745H226.006V500.124L238.396 507.275C249.314 513.577 262.766 513.573 273.683 507.269L285.99 500.161V296.745H482.435L482.421 215.255H285.99V11.875Z" fill="#FF4B55"/>
<path d="M168.737 323.909L70.6113 410.442L92.8093 423.253L205.462 323.909H168.737Z" fill="#FF4B55"/>
<path d="M321.638 323.909L428.298 417.968L450.49 405.151L358.362 323.909H321.638Z" fill="#FF4B55"/>
<path d="M186.018 188.091L81.0768 95.5459L58.8848 108.364L149.293 188.091H186.018Z" fill="#FF4B55"/>
<path d="M305.984 188.091H342.709L441.051 101.366L418.853 88.5537L305.984 188.091Z" fill="#FF4B55"/>
</g>
<defs>
<clipPath id="clip0_121_7">
<rect width="512" height="512" fill="white"/>
</clipPath>
</defs>
</svg>
