<svg width="467" height="308" viewBox="0 0 467 308" fill="none" xmlns="http://www.w3.org/2000/svg">
<path d="M359.653 71.1615C332.315 28.3913 284.37 0 229.786 0C144.703 0 75.7856 68.9634 75.7856 154C75.7856 169.661 78.1211 184.773 82.4713 199.06L99.323 191.275C95.9343 179.415 94.1026 166.913 94.1026 154C94.1026 79.1751 154.961 18.317 229.786 18.317C276.86 18.317 318.44 42.4496 342.801 78.9462L359.653 71.1615ZM353.013 97.1716C361.027 114.481 365.514 133.714 365.514 154C365.514 228.825 304.656 289.683 229.831 289.683C175.293 289.683 128.172 257.354 106.604 210.828L89.9355 218.522C114.343 271.366 167.783 308 229.831 308C314.914 308 383.831 239.037 383.831 154C383.831 130.966 378.748 109.078 369.682 89.4784L353.013 97.1716Z" fill="white"/>
<path d="M0 259.643C37.3208 238.258 75.3744 218.522 113.748 199.334C132.844 189.581 152.214 180.468 171.447 171.035L229.603 143.651L288.172 117.183C307.817 108.665 327.37 99.8275 347.153 91.6306C386.626 74.9164 426.373 58.7517 466.854 44.2812C429.533 65.7121 391.48 85.4487 353.151 104.636C334.056 114.389 314.686 123.502 295.453 132.935L237.296 160.274L178.728 186.742C159.083 195.259 139.53 204.051 119.747 212.294C80.2283 228.962 40.5263 245.127 0 259.643Z" fill="white"/>
<path d="M441.579 152.352C452.226 152.352 460.858 143.72 460.858 133.073C460.858 122.426 452.226 113.794 441.579 113.794C430.932 113.794 422.3 122.426 422.3 133.073C422.3 143.72 430.932 152.352 441.579 152.352Z" fill="white"/>
<path d="M36.633 89.4329C44.1695 89.4329 50.2791 83.3233 50.2791 75.7868C50.2791 68.2502 44.1695 62.1406 36.633 62.1406C29.0964 62.1406 22.9868 68.2502 22.9868 75.7868C22.9868 83.3233 29.0964 89.4329 36.633 89.4329Z" fill="white"/>
</svg>
