<svg width="18" height="18" viewBox="0 0 18 18" fill="none" xmlns="http://www.w3.org/2000/svg">
<path d="M18 8.25H16V7.5C16 6.81 15.44 6.25 14.75 6.25H12.75C12.06 6.25 11.5 6.81 11.5 7.5V8.25H9.75V5.25H7.75V3.25H9.75V0H17C17.2652 0 17.5196 0.105357 17.7071 0.292893C17.8946 0.48043 18 0.734784 18 1V8.25Z" fill="white"/>
<path d="M8.25 0V2H7.5C7.457 2 7.414 2.006 7.372 2.01C6.742 2.074 6.25 2.853 6.25 3.5V5.25C6.25 5.336 6.25833 5.42 6.275 5.502C6.392 6.072 6.895 6.5 7.5 6.5H8.25V8.25H5.25V10.25H3.25V8.25H0V1C0 0.734784 0.105357 0.48043 0.292893 0.292893C0.48043 0.105357 0.734784 0 1 0H8.25Z" fill="white"/>
<path d="M0 9.75H1.75V10.5C1.75 11.19 2.31 11.75 3 11.75H5.5C6.19 11.75 6.75 11.19 6.75 10.5V9.75H8.25V13H10.25V15H8.25V18H1C0.734784 18 0.48043 17.8946 0.292893 17.7071C0.105357 17.5196 0 17.2652 0 17V9.75Z" fill="white"/>
<path d="M9.75 18V16H10.5C10.8315 16 11.1495 15.8683 11.3839 15.6339C11.6183 15.3995 11.75 15.0815 11.75 14.75V13C11.75 12.31 11.19 11.75 10.5 11.75H9.75V9.75H12.75V7.75H14.75V9.75H18V17C18 17.2652 17.8946 17.5196 17.7071 17.7071C17.5196 17.8946 17.2652 18 17 18H9.75Z" fill="white"/>
</svg>
