<svg width="126" height="127" viewBox="0 0 126 127" fill="none" xmlns="http://www.w3.org/2000/svg">
<path d="M2.27437 2.77437L1.36462 3.68412L0.454874 5.95848V10.5072L0.909747 12.3267L2.27437 14.6011L6.8231 19.1498L10.4621 22.7888L14.1011 27.3375L16.8303 31.8863L19.5596 36.8899L21.3791 40.9838L23.1986 45.9874L24.1083 51.4459L25.0181 55.5397V71.9152L24.5632 74.6444L22.7437 81.4675L20.9242 86.926L18.1949 92.8393L14.556 98.7527L10.4621 104.666L4.54874 110.579L1.36462 113.764L0 115.583V121.042L0.909747 123.771L2.72924 125.59L5.45848 126.955H10.917L12.2816 126.045L21.8339 116.493L26.3827 112.854L31.8412 109.215L37.2996 106.94L42.7581 104.211L49.1264 102.392L54.5848 101.482H70.0505L73.8756 101.937L81.8773 104.211L89.6101 107.395L98.7076 112.854L104.621 117.857L108.715 121.951L112.809 125.135L115.538 126.955H120.996L123.271 124.226L125.09 122.406L126 120.132V117.403L124.635 114.673L119.632 108.76L113.264 101.937L108.715 94.6588L105.076 88.2906L101.892 78.7383L100.527 71.4603V57.8141L101.892 48.7166L105.531 38.7094L110.989 28.7022L114.628 23.6986L120.996 17.3303L125.09 12.7816L126 10.9621V9.1426V5.95848L124.635 4.13899L122.361 1.86462L120.087 0.5H117.357L115.083 0.954874L112.354 2.77437L107.805 7.3231L101.892 12.7816L94.6137 17.7852L85.9711 21.8791L78.2383 24.6083L71.4152 26.4278H57.3141L51.8556 25.5181L44.5776 23.6986L38.2094 21.4242L33.6606 19.1498L30.0217 17.3303L26.8375 15.056L12.2816 1.86462L10.917 0.954874L9.09747 0.5H7.27798H6.36823L4.54874 0.954874L3.18412 1.86462L2.27437 2.77437Z" fill="#F6F6F6"/>
</svg>
