<svg width="80" height="80" viewBox="0 0 80 80" fill="none" xmlns="http://www.w3.org/2000/svg">
<path d="M63.6 35.6C50.8 28 29.4 27.2 17.2 31C15.2 31.6 13.2 30.4 12.6 28.6C12 26.6 13.2 24.6 15 24C29.2 19.8 52.6 20.6 67.4 29.4C69.2 30.4 69.8 32.8 68.8 34.6C67.8 36 65.4 36.6 63.6 35.6ZM63.2 46.8C62.2 48.2 60.4 48.8 59 47.8C48.2 41.2 31.8 39.2 19.2 43.2C17.6 43.6 15.8 42.8 15.4 41.2C15 39.6 15.8 37.8 17.4 37.4C32 33 50 35.2 62.4 42.8C63.6 43.4 64.2 45.4 63.2 46.8ZM58.4 57.8C57.6 59 56.2 59.4 55 58.6C45.6 52.8 33.8 51.6 19.8 54.8C18.4 55.2 17.2 54.2 16.8 53C16.4 51.6 17.4 50.4 18.6 50C33.8 46.6 47 48 57.4 54.4C58.8 55 59 56.6 58.4 57.8ZM40 0C34.7471 0 29.5457 1.03463 24.6927 3.04482C19.8396 5.05501 15.4301 8.00139 11.7157 11.7157C4.21427 19.2172 0 29.3913 0 40C0 50.6087 4.21427 60.7828 11.7157 68.2843C15.4301 71.9986 19.8396 74.945 24.6927 76.9552C29.5457 78.9654 34.7471 80 40 80C50.6087 80 60.7828 75.7857 68.2843 68.2843C75.7857 60.7828 80 50.6087 80 40C80 34.7471 78.9654 29.5457 76.9552 24.6927C74.945 19.8396 71.9986 15.4301 68.2843 11.7157C64.5699 8.00139 60.1604 5.05501 55.3073 3.04482C50.4543 1.03463 45.2529 0 40 0Z" fill="#DE7EFF"/>
</svg>
